<svg width="229" height="30" viewBox="0 0 229 30" fill="none" xmlns="http://www.w3.org/2000/svg">
<path d="M13.2591 18.7051H6.29743L5.18143 22H0.425143L7.17429 3.34686H12.4354L19.1846 22H14.3751L13.2591 18.7051ZM12.09 15.1977L9.77829 8.36886L7.49314 15.1977H12.09ZM20.3352 14.56C20.3352 13.0366 20.6187 11.6991 21.1855 10.5477C21.7701 9.39628 22.5584 8.51057 23.5504 7.89057C24.5424 7.27057 25.6495 6.96057 26.8718 6.96057C27.8461 6.96057 28.7318 7.16428 29.529 7.57171C30.3438 7.97914 30.9815 8.52828 31.4421 9.21914V2.33714H35.9858V22H31.4421V19.8743C31.017 20.5829 30.4058 21.1497 29.6087 21.5749C28.8292 22 27.917 22.2126 26.8718 22.2126C25.6495 22.2126 24.5424 21.9026 23.5504 21.2826C22.5584 20.6449 21.7701 19.7503 21.1855 18.5989C20.6187 17.4297 20.3352 16.0834 20.3352 14.56ZM31.4421 14.5866C31.4421 13.4529 31.1232 12.5583 30.4855 11.9029C29.8655 11.2474 29.1038 10.9197 28.2004 10.9197C27.297 10.9197 26.5264 11.2474 25.8887 11.9029C25.2687 12.5406 24.9587 13.4263 24.9587 14.56C24.9587 15.6937 25.2687 16.5971 25.8887 17.2703C26.5264 17.9257 27.297 18.2534 28.2004 18.2534C29.1038 18.2534 29.8655 17.9257 30.4855 17.2703C31.1232 16.6149 31.4421 15.7203 31.4421 14.5866ZM41.5581 5.632C40.761 5.632 40.1056 5.40171 39.5918 4.94114C39.0958 4.46286 38.8478 3.87828 38.8478 3.18743C38.8478 2.47886 39.0958 1.89428 39.5918 1.43371C40.1056 0.955426 40.761 0.716283 41.5581 0.716283C42.3376 0.716283 42.9753 0.955426 43.4713 1.43371C43.985 1.89428 44.2418 2.47886 44.2418 3.18743C44.2418 3.87828 43.985 4.46286 43.4713 4.94114C42.9753 5.40171 42.3376 5.632 41.5581 5.632ZM43.8167 7.17314V22H39.273V7.17314H43.8167ZM55.3732 18.1471V22H53.0615C51.4141 22 50.1298 21.6014 49.2086 20.8043C48.2875 19.9894 47.8269 18.6697 47.8269 16.8451V10.9463H46.0201V7.17314H47.8269V3.55943H52.3706V7.17314H55.3466V10.9463H52.3706V16.8983C52.3706 17.3411 52.4769 17.66 52.6895 17.8549C52.9021 18.0497 53.2563 18.1471 53.7523 18.1471H55.3732ZM73.0498 7.17314L63.7498 29.0414H58.8607L62.2618 21.4951L56.2301 7.17314H61.3053L64.733 16.4466L68.1341 7.17314H73.0498ZM73.7895 14.56C73.7895 13.0366 74.0729 11.6991 74.6398 10.5477C75.2243 9.39628 76.0126 8.51057 77.0046 7.89057C77.9966 7.27057 79.1038 6.96057 80.3261 6.96057C81.3712 6.96057 82.2835 7.17314 83.0629 7.59828C83.8601 8.02343 84.4712 8.58143 84.8963 9.27228V7.17314H89.4401V22H84.8963V19.9009C84.4535 20.5917 83.8335 21.1497 83.0363 21.5749C82.2569 22 81.3446 22.2126 80.2995 22.2126C79.0949 22.2126 77.9966 21.9026 77.0046 21.2826C76.0126 20.6449 75.2243 19.7503 74.6398 18.5989C74.0729 17.4297 73.7895 16.0834 73.7895 14.56ZM84.8963 14.5866C84.8963 13.4529 84.5775 12.5583 83.9398 11.9029C83.3198 11.2474 82.5581 10.9197 81.6546 10.9197C80.7512 10.9197 79.9806 11.2474 79.3429 11.9029C78.7229 12.5406 78.4129 13.4263 78.4129 14.56C78.4129 15.6937 78.7229 16.5971 79.3429 17.2703C79.9806 17.9257 80.7512 18.2534 81.6546 18.2534C82.5581 18.2534 83.3198 17.9257 83.9398 17.2703C84.5775 16.6149 84.8963 15.7203 84.8963 14.5866Z" fill="#4FB0B8"/>
<path d="M105.107 22.186C103.743 22.186 102.521 21.9646 101.44 21.5217C100.36 21.0789 99.4918 20.4234 98.8364 19.5554C98.1987 18.6874 97.8621 17.6423 97.8267 16.42H102.663C102.734 17.1109 102.973 17.6423 103.38 18.0143C103.788 18.3686 104.319 18.5457 104.974 18.5457C105.648 18.5457 106.179 18.3951 106.569 18.094C106.958 17.7751 107.153 17.3411 107.153 16.792C107.153 16.3314 106.994 15.9506 106.675 15.6494C106.374 15.3483 105.993 15.1003 105.532 14.9054C105.09 14.7106 104.452 14.4891 103.619 14.2411C102.415 13.8691 101.432 13.4971 100.67 13.1251C99.9081 12.7531 99.2527 12.204 98.7035 11.4777C98.1544 10.7514 97.8798 9.80371 97.8798 8.63457C97.8798 6.89857 98.5087 5.54343 99.7664 4.56914C101.024 3.57714 102.663 3.08114 104.682 3.08114C106.737 3.08114 108.393 3.57714 109.651 4.56914C110.909 5.54343 111.582 6.90743 111.67 8.66114H106.755C106.719 8.05886 106.498 7.58943 106.09 7.25286C105.683 6.89857 105.16 6.72143 104.523 6.72143C103.974 6.72143 103.531 6.872 103.194 7.17314C102.858 7.45657 102.689 7.87285 102.689 8.422C102.689 9.02428 102.973 9.49371 103.54 9.83028C104.106 10.1669 104.992 10.53 106.197 10.9197C107.401 11.3271 108.376 11.7169 109.12 12.0889C109.881 12.4609 110.537 13.0011 111.086 13.7097C111.635 14.4183 111.91 15.3306 111.91 16.4466C111.91 17.5094 111.635 18.4749 111.086 19.3429C110.554 20.2109 109.775 20.9017 108.748 21.4154C107.72 21.9291 106.507 22.186 105.107 22.186ZM128.682 14.3474C128.682 14.7726 128.656 15.2154 128.603 15.676H118.319C118.39 16.5971 118.683 17.3057 119.196 17.8017C119.728 18.28 120.374 18.5191 121.136 18.5191C122.27 18.5191 123.058 18.0409 123.501 17.0843H128.337C128.089 18.0586 127.637 18.9354 126.982 19.7149C126.344 20.4943 125.538 21.1054 124.564 21.5483C123.589 21.9911 122.5 22.2126 121.295 22.2126C119.843 22.2126 118.55 21.9026 117.416 21.2826C116.282 20.6626 115.397 19.7769 114.759 18.6254C114.121 17.474 113.802 16.1277 113.802 14.5866C113.802 13.0454 114.112 11.6991 114.732 10.5477C115.37 9.39628 116.256 8.51057 117.389 7.89057C118.523 7.27057 119.825 6.96057 121.295 6.96057C122.73 6.96057 124.006 7.26171 125.122 7.864C126.238 8.46628 127.106 9.32543 127.726 10.4414C128.363 11.5574 128.682 12.8594 128.682 14.3474ZM124.032 13.1517C124.032 12.3723 123.767 11.7523 123.235 11.2917C122.704 10.8311 122.039 10.6009 121.242 10.6009C120.481 10.6009 119.834 10.8223 119.303 11.2651C118.789 11.708 118.47 12.3369 118.346 13.1517H124.032ZM135.623 9.27228C136.066 8.58143 136.677 8.02343 137.457 7.59828C138.236 7.17314 139.148 6.96057 140.193 6.96057C141.416 6.96057 142.523 7.27057 143.515 7.89057C144.507 8.51057 145.286 9.39628 145.853 10.5477C146.438 11.6991 146.73 13.0366 146.73 14.56C146.73 16.0834 146.438 17.4297 145.853 18.5989C145.286 19.7503 144.507 20.6449 143.515 21.2826C142.523 21.9026 141.416 22.2126 140.193 22.2126C139.166 22.2126 138.254 22 137.457 21.5749C136.677 21.1497 136.066 20.6006 135.623 19.9274V29.068H131.079V7.17314H135.623V9.27228ZM142.107 14.56C142.107 13.4263 141.788 12.5406 141.15 11.9029C140.53 11.2474 139.759 10.9197 138.838 10.9197C137.935 10.9197 137.164 11.2474 136.527 11.9029C135.907 12.5583 135.597 13.4529 135.597 14.5866C135.597 15.7203 135.907 16.6149 136.527 17.2703C137.164 17.9257 137.935 18.2534 138.838 18.2534C139.742 18.2534 140.512 17.9257 141.15 17.2703C141.788 16.5971 142.107 15.6937 142.107 14.56ZM157.377 18.1471V22H155.066C153.418 22 152.134 21.6014 151.213 20.8043C150.292 19.9894 149.831 18.6697 149.831 16.8451V10.9463H148.024V7.17314H149.831V3.55943H154.375V7.17314H157.351V10.9463H154.375V16.8983C154.375 17.3411 154.481 17.66 154.694 17.8549C154.906 18.0497 155.261 18.1471 155.757 18.1471H157.377ZM159.005 14.56C159.005 13.0366 159.288 11.6991 159.855 10.5477C160.44 9.39628 161.228 8.51057 162.22 7.89057C163.212 7.27057 164.319 6.96057 165.541 6.96057C166.587 6.96057 167.499 7.17314 168.278 7.59828C169.075 8.02343 169.687 8.58143 170.112 9.27228V7.17314H174.655V22H170.112V19.9009C169.669 20.5917 169.049 21.1497 168.252 21.5749C167.472 22 166.56 22.2126 165.515 22.2126C164.31 22.2126 163.212 21.9026 162.22 21.2826C161.228 20.6449 160.44 19.7503 159.855 18.5989C159.288 17.4297 159.005 16.0834 159.005 14.56ZM170.112 14.5866C170.112 13.4529 169.793 12.5583 169.155 11.9029C168.535 11.2474 167.773 10.9197 166.87 10.9197C165.967 10.9197 165.196 11.2474 164.558 11.9029C163.938 12.5406 163.628 13.4263 163.628 14.56C163.628 15.6937 163.938 16.5971 164.558 17.2703C165.196 17.9257 165.967 18.2534 166.87 18.2534C167.773 18.2534 168.535 17.9257 169.155 17.2703C169.793 16.6149 170.112 15.7203 170.112 14.5866ZM196.862 7.01371C198.704 7.01371 200.165 7.57171 201.246 8.68771C202.344 9.80371 202.893 11.3537 202.893 13.3377V22H198.376V13.9489C198.376 12.9923 198.119 12.2571 197.606 11.7434C197.11 11.212 196.419 10.9463 195.533 10.9463C194.647 10.9463 193.947 11.212 193.434 11.7434C192.938 12.2571 192.69 12.9923 192.69 13.9489V22H188.173V13.9489C188.173 12.9923 187.916 12.2571 187.402 11.7434C186.906 11.212 186.215 10.9463 185.329 10.9463C184.444 10.9463 183.744 11.212 183.23 11.7434C182.734 12.2571 182.486 12.9923 182.486 13.9489V22H177.943V7.17314H182.486V9.03314C182.947 8.41314 183.549 7.926 184.293 7.57171C185.037 7.19971 185.879 7.01371 186.817 7.01371C187.933 7.01371 188.925 7.25286 189.793 7.73114C190.679 8.20943 191.37 8.89143 191.866 9.77714C192.38 8.96228 193.079 8.298 193.965 7.78428C194.851 7.27057 195.816 7.01371 196.862 7.01371ZM205.168 14.56C205.168 13.0366 205.451 11.6991 206.018 10.5477C206.602 9.39628 207.391 8.51057 208.383 7.89057C209.375 7.27057 210.482 6.96057 211.704 6.96057C212.749 6.96057 213.662 7.17314 214.441 7.59828C215.238 8.02343 215.849 8.58143 216.274 9.27228V7.17314H220.818V22H216.274V19.9009C215.832 20.5917 215.212 21.1497 214.414 21.5749C213.635 22 212.723 22.2126 211.678 22.2126C210.473 22.2126 209.375 21.9026 208.383 21.2826C207.391 20.6449 206.602 19.7503 206.018 18.5989C205.451 17.4297 205.168 16.0834 205.168 14.56ZM216.274 14.5866C216.274 13.4529 215.956 12.5583 215.318 11.9029C214.698 11.2474 213.936 10.9197 213.033 10.9197C212.129 10.9197 211.359 11.2474 210.721 11.9029C210.101 12.5406 209.791 13.4263 209.791 14.56C209.791 15.6937 210.101 16.5971 210.721 17.2703C211.359 17.9257 212.129 18.2534 213.033 18.2534C213.936 18.2534 214.698 17.9257 215.318 17.2703C215.956 16.6149 216.274 15.7203 216.274 14.5866ZM226.231 22.2126C225.434 22.2126 224.778 21.9823 224.265 21.5217C223.769 21.0434 223.521 20.4589 223.521 19.768C223.521 19.0594 223.769 18.466 224.265 17.9877C224.778 17.5094 225.434 17.2703 226.231 17.2703C227.01 17.2703 227.648 17.5094 228.144 17.9877C228.658 18.466 228.915 19.0594 228.915 19.768C228.915 20.4589 228.658 21.0434 228.144 21.5217C227.648 21.9823 227.01 22.2126 226.231 22.2126Z" fill="#5935B3"/>
</svg>
